<svg xmlns="http://www.w3.org/2000/svg" xmlns:xlink="http://www.w3.org/1999/xlink" width="23" height="19" viewBox="0 0 23 19"><defs><path id="nidfa" d="M490.38 152.75a8.13 8.13 0 0 0-6.25 1.77 9.37 9.37 0 0 1 6.4 1.58 6.33 6.33 0 0 1 2.75 4.4 6.14 6.14 0 0 1-1.27 4.42c2.07 1.52 3.96 1.11 3.52.79-1.23-.91-1.5-1.8-1.41-2.5a5.33 5.33 0 0 0 2.86-3.95c.38-3.15-2.58-6.07-6.6-6.51zm-5.24 2.92c-.34 0-.68.02-1.03.06-4.02.44-6.98 3.36-6.6 6.5a5.33 5.33 0 0 0 2.86 3.96c.08.7-.18 1.59-1.4 2.5-.2.14.06.3.6.3.84 0 2.34-.39 3.78-1.85a9.06 9.06 0 0 0 2.12 0c4.02-.44 6.97-3.35 6.6-6.5-.34-2.89-3.35-4.97-6.93-4.97z"/></defs><g><g transform="translate(-476 -151)"><use fill="#a2b1c9" xlink:href="#nidfa"/></g></g></svg>