<svg xmlns="http://www.w3.org/2000/svg" xmlns:xlink="http://www.w3.org/1999/xlink" width="103" height="17" viewBox="0 0 103 17"><defs><path id="xs2ma" d="M149.16 167.48l1.82-2.68a6.04 6.04 0 0 0 4.28 1.76c1.16 0 1.88-.4 1.88-1.06 0-1.76-7.54-.3-7.54-5.44 0-2.24 1.88-4.24 5.3-4.24 2.14 0 4 .64 5.42 1.86l-1.88 2.58a6.19 6.19 0 0 0-3.9-1.4c-1 0-1.44.34-1.44.92 0 1.64 7.54.4 7.54 5.36 0 2.68-1.98 4.46-5.56 4.46-2.7 0-4.58-.86-5.92-2.12zm12.9-4.78c0-4.06 3.06-6.9 7.14-6.9s7.12 2.84 7.12 6.9c0 4.06-3.04 6.9-7.12 6.9s-7.14-2.84-7.14-6.9zm10.76 0c0-2.18-1.42-3.86-3.62-3.86s-3.64 1.68-3.64 3.86c0 2.16 1.44 3.86 3.64 3.86s3.62-1.7 3.62-3.86zm5.06 0c0-4.12 3.12-6.9 7.22-6.9a6.15 6.15 0 0 1 5.82 3.56l-2.96 1.42a3.2 3.2 0 0 0-2.86-1.94c-2.18 0-3.72 1.66-3.72 3.86 0 2.18 1.54 3.86 3.72 3.86a3.2 3.2 0 0 0 2.86-1.94l2.96 1.4a6.23 6.23 0 0 1-5.82 3.58c-4.1 0-7.22-2.8-7.22-6.9zm15.02 6.66v-13.34h3.44v13.34zm15.4 0l-.66-1.92h-5.26l-.66 1.92h-3.9l5.02-13.34h4.34l5.02 13.34zm-3.28-9.94l-1.7 5.02h3.38zm8.6 9.94v-13.34h3.44v10.34h5.36v3zm16.68-5.4v-7.94h3.5v7.82c0 1.58.96 2.72 2.82 2.72 1.84 0 2.8-1.14 2.8-2.72v-7.82h3.48v7.92c0 3.32-2 5.66-6.28 5.66s-6.32-2.36-6.32-5.64zm15.5 5.4v-13.34h3.44v13.34z"/></defs><g><g transform="translate(-148 -154)"><use fill="#fff" xlink:href="#xs2ma"/></g></g></svg>